<?xml version="1.0" standalone="no"?>
<!DOCTYPE svg PUBLIC "-//W3C//DTD SVG 20010904//EN"
 "http://www.w3.org/TR/2001/REC-SVG-20010904/DTD/svg10.dtd">
<svg version="1.0" xmlns="http://www.w3.org/2000/svg"
 width="200.000000pt" height="200.000000pt" viewBox="0 0 200.000000 200.000000"
 preserveAspectRatio="xMidYMid meet">

<g transform="translate(0.000000,200.000000) scale(0.100000,-0.100000)"
fill="#ffffff" stroke="none">
<path d="M740 1637 c-146 -41 -251 -192 -238 -344 l3 -38 78 -3 77 -3 0 38 c1
99 48 174 123 194 24 6 140 9 301 7 261 -3 263 -3 299 -28 72 -49 72 -48 72
-486 l0 -390 -27 -41 c-46 -70 -60 -73 -367 -73 -251 0 -275 2 -310 20 -56 28
-83 77 -89 161 l-5 69 -80 0 -80 0 7 -84 c3 -49 15 -104 27 -133 25 -60 89
-127 154 -161 l50 -27 325 0 c318 0 326 0 371 23 64 32 122 91 155 159 l29 58
3 392 c4 425 0 470 -52 551 -31 50 -89 100 -145 126 -43 20 -65 21 -341 23
-213 2 -308 -1 -340 -10z"/>
<path d="M890 1205 l0 -85 -265 0 -265 0 0 -130 0 -130 265 0 265 0 0 -95 c0
-52 3 -95 6 -95 4 0 337 253 394 300 17 14 4 26 -184 168 -111 83 -205 152
-209 152 -4 0 -7 -38 -7 -85z"/>
</g>
</svg>
