<?xml version="1.0" encoding="utf-8"?>
<!-- Generator: Adobe Illustrator 27.1.1, SVG Export Plug-In . SVG Version: 6.00 Build 0)  -->
<svg version="1.1" id="Layer_1" xmlns="http://www.w3.org/2000/svg" xmlns:xlink="http://www.w3.org/1999/xlink" x="0px" y="0px"
	 viewBox="0 0 121.75 121.75" style="enable-background:new 0 0 121.75 121.75;" xml:space="preserve">
<style type="text/css">
	.st0{clip-path:url(#SVGID_00000078731039045161397800000016713753569580001430_);fill:#EA4B5F;}
	.st1{clip-path:url(#SVGID_00000078731039045161397800000016713753569580001430_);fill:#FFFFFF;}
</style>
<g>
	<defs>
		<rect id="SVGID_1_" y="0" width="121.75" height="121.75"/>
	</defs>
	<clipPath id="SVGID_00000152225318839940409100000009884243341932317591_">
		<use xlink:href="#SVGID_1_"  style="overflow:visible;"/>
	</clipPath>
	<path style="clip-path:url(#SVGID_00000152225318839940409100000009884243341932317591_);fill:#EA4B5F;" d="M87.89,6.07
		c1.22,0.77,2.5,1.49,3.84,2.06c2.83,1.21,5.2,3.04,7.38,5.15c0.53,0.52,1.14,0.96,1.66,1.5c0.76,0.79,1.47,1.63,2.21,2.43
		c0.35,0.38,0.76,0.71,1.14,1.07c0.63,0.62,1.33,1.19,1.87,1.88c1.37,1.72,2.75,3.44,3.98,5.26c1.57,2.32,3.03,4.72,4.47,7.13
		c0.49,0.81,0.74,1.76,1.14,2.64c0.92,2,1.87,3.99,2.79,5.98c0.19,0.42,0.35,0.85,0.48,1.29c0.52,1.73,1,3.48,1.55,5.2
		c0.61,1.91,0.93,3.88,1.05,5.86c0.18,2.83,0.21,5.68,0.29,8.25c-0.07,1.8-0.3,3.34-0.16,4.85c0.17,1.78-0.35,3.43-0.54,5.14
		c-0.19,1.73-0.47,3.45-0.73,5.17c-0.16,1.05-0.31,2.11-0.57,3.14c-0.24,0.96-0.62,1.88-0.94,2.82c-0.13,0.37-0.31,0.72-0.42,1.09
		c-3.13,10.13-8.78,18.56-17,25.27c-0.19,0.16-0.45,0.29-0.55,0.49c-0.69,1.39-2.03,1.93-3.28,2.59c-0.53,0.28-1.02,0.54-1.35,1.12
		c-0.23,0.4-0.69,0.72-1.12,0.96c-1.86,1.03-3.72,2.07-5.64,3c-1.4,0.68-2.88,1.22-4.33,1.78c-1.26,0.49-2.55,0.83-3.93,0.89
		c-0.77,0.03-1.59,0.17-2.28,0.5c-1.31,0.62-2.69,0.59-4.06,0.7c-1.45,0.11-2.89,0.27-4.34,0.37c-1.06,0.07-2.12,0.1-3.19,0.11
		c-2.45,0.01-4.9,0-7.36,0c-0.95,0-1.91,0.01-2.87,0c-0.39,0-0.79-0.02-1.16-0.1c-3.23-0.7-6.46-1.38-9.67-2.13
		c-4.51-1.06-8.8-2.76-12.99-4.72c-0.58-0.27-1.17-0.52-1.74-0.8c-0.54-0.26-1.04-0.51-1.71-0.31c-0.33,0.1-0.85-0.11-1.17-0.33
		c-1.31-0.92-2.6-1.86-3.85-2.85c-3.04-2.42-5.78-5.15-8.34-8.07c-0.83-0.95-1.86-1.73-2.76-2.62c-0.53-0.52-1.04-1.07-1.48-1.67
		c-1.01-1.41-1.99-2.86-2.95-4.31C8.9,93.3,8.54,92.77,8.6,92.07c0.02-0.22-0.15-0.46-0.25-0.68C6.7,87.85,5.03,84.32,3.4,80.77
		c-1.14-2.47-1.63-5.13-2.08-7.79c-0.31-1.81-0.62-3.63-0.89-5.45c-0.19-1.26-0.41-2.54-0.42-3.81c-0.02-2.84-0.04-5.69,0.19-8.52
		c0.16-2,0.73-3.97,1.07-5.96c0.19-1.08,0.33-2.17,0.4-3.27c0.15-2.48,0.8-4.83,1.73-7.11c0.16-0.39,0.31-0.8,0.5-1.17
		c2.11-4.15,4.18-8.32,6.97-12.07c5.3-7.12,11.9-12.76,19.7-16.99c1.4-0.76,2.81-1.52,4.24-2.24c0.43-0.22,0.94-0.27,1.4-0.41
		c0.4-0.12,0.82-0.22,1.2-0.39c4.22-1.82,8.58-3.21,13.12-3.99c3.08-0.53,6.19-0.87,9.33-0.91c0.61-0.01,1.17-0.09,1.76-0.32
		C62.26,0.13,63-0.03,63.68,0c1.88,0.09,3.76,0.22,5.62,0.49c2.67,0.39,5.36,0.76,7.96,1.46"/>
	<path style="clip-path:url(#SVGID_00000152225318839940409100000009884243341932317591_);fill:#FFFFFF;" d="M80.22,76.42
		c-0.29,1.28-0.55,2.34-0.78,3.41c-0.12,0.55-0.21,1.12-0.31,1.67c-0.14,0.77-0.4,1.5-1.26,1.67c-0.97,0.19-1.88-0.07-2.46-0.89
		c-0.41-0.56-0.74-1.22-0.94-1.89c-0.81-2.78-1.19-5.6-0.75-8.52c0.24-1.58,0.38-3.17,1.04-4.65c0.32-0.71,0.67-1.41,1.03-2.1
		c0.15-0.28,0.36-0.53,0.59-0.75c1.3-1.28,3.09-1,3.86,0.65c0.27,0.57,0.43,1.22,0.48,1.84c0.07,0.84,0.08,1.72-0.07,2.54
		c-0.2,1.03,0.04,1.97,0.32,2.92c0.06,0.2,0.26,0.44,0.45,0.51c0.61,0.25,1.83-0.13,2.16-0.73c0.54-0.99,1.09-1.99,1.46-3.05
		c0.47-1.33,1.11-2.53,1.96-3.64c0.67-0.88,1.67-1.32,2.6-1.8c0.25-0.13,0.74,0.07,1.05,0.24c0.21,0.12,0.4,0.44,0.45,0.7
		c0.35,1.77,0.93,3.49,0.63,5.35c-0.19,1.19-0.17,2.41-0.27,3.61c-0.09,1.13-0.19,2.26-0.33,3.39c-0.06,0.49-0.17,0.98-0.34,1.45
		c-0.41,1.17-0.85,2.33-1.32,3.48c-0.18,0.46-0.43,0.9-0.72,1.29c-0.81,1.06-2.12,0.95-2.66-0.25c-0.59-1.32-1.28-2.6-1.46-4.08
		c-0.14-1.18-1.1-1.74-2.04-2.11C81.92,76.45,81.1,76.52,80.22,76.42"/>
	<path style="clip-path:url(#SVGID_00000152225318839940409100000009884243341932317591_);fill:#FFFFFF;" d="M84.54,26.03
		c-0.48,0.29-0.81,0.42-1.05,0.65c-0.93,0.88-1.84,1.78-2.74,2.68c-1.15,1.15-1.93,1.07-2.98-0.18c-1.41-1.69-1.02-1.89-0.2-3.38
		c1-1.81,2.52-3.18,4-4.54c1.57-1.44,3.06-2.96,4.45-4.57c0.72-0.84,1.67-1.34,2.65-1.72c1.6-0.61,2.76,0.38,2.58,2.08
		c-0.07,0.67-0.04,1.34-0.1,2.01c-0.13,1.56-0.3,3.11-0.43,4.67c-0.06,0.74-0.03,1.48-0.1,2.22c-0.1,1.05-0.24,2.09-0.38,3.25
		c0.24-0.07,0.51-0.06,0.65-0.19c0.85-0.8,1.69-1.6,2.49-2.46c0.99-1.06,1.9-2.2,2.9-3.26c0.36-0.38,0.83-0.69,1.3-0.91
		c1.28-0.6,2.51,0.13,2.57,1.55c0.07,1.62-0.43,3.12-1.44,4.36c-1.28,1.56-2.68,3.02-4.03,4.53l-0.07,0.08
		c-1.63,1.18-3.22,2.43-4.91,3.51c-0.65,0.42-1.53,0.55-2.32,0.64c-1.2,0.14-1.69-0.37-1.74-1.57c-0.07-1.49-0.13-2.97-0.25-4.46
		c-0.09-1.17-0.25-2.33-0.42-3.48C84.92,27.11,84.74,26.69,84.54,26.03"/>
	<path style="clip-path:url(#SVGID_00000152225318839940409100000009884243341932317591_);fill:#FFFFFF;" d="M75.12,95.44
		c0.06,0.92,0.45,1.65,0.97,2.28c0.5,0.6,1.29,0.81,2.03,0.7c0.79-0.11,0.99-0.85,1.13-1.52c0.14-0.66,0.28-1.33,0.31-2
		c0.03-0.56,0-1.14-0.15-1.68c-0.24-0.86-0.96-1.41-1.75-1.54c-0.81-0.13-1.5,0.41-1.78,1.24C75.59,93.75,75.37,94.6,75.12,95.44
		 M76.72,103.89c-0.98-0.11-1.65-0.16-2.32-0.26c-1.4-0.22-2.32-1.14-3.17-2.18c-2.74-3.37-2.77-7.05-1.33-10.94
		c0.47-1.26,1.47-2.06,2.31-3.02c0.99-1.14,2.26-1.68,3.75-1.76c0.25-0.01,0.5-0.04,0.74-0.1c1.54-0.41,2.85,0.17,4.11,0.97
		c0.21,0.13,0.39,0.32,0.6,0.43c1.23,0.6,1.91,1.71,2.41,2.87c1.14,2.68,1.23,5.48,0.21,8.2c-0.51,1.38-1.37,2.64-2.17,3.89
		c-0.49,0.76-1.26,1.22-2.2,1.37C78.59,103.52,77.51,103.74,76.72,103.89"/>
	<path style="clip-path:url(#SVGID_00000152225318839940409100000009884243341932317591_);fill:#FFFFFF;" d="M21.75,38.82
		c0.39-0.69,0.65-1.33,1.06-1.86c0.59-0.76,0.83-1.64,1.11-2.51c0.16-0.49-0.11-1.36-0.47-1.64c-0.46-0.35-0.89-0.31-1.53,0.1
		c-0.36,0.23-0.77,0.38-1.11,0.62c-0.34,0.24-0.72,0.5-0.92,0.84c-0.39,0.66-0.67,1.39-0.95,2C19.9,37.22,20.78,37.98,21.75,38.82
		 M27.41,35.34c2.56-0.41,5.12-0.14,7.69,0.19c1.31,0.17,1.58,0.79,1.66,1.46c0.12,1.01-0.44,1.94-1.36,2.29l-0.1,0.04
		c-1.82,0.26-3.58,0.91-5.44,0.82c-0.6-0.03-1.19-0.18-1.78-0.28c-1.9-0.33-1.66-0.37-3,1.03c0.14,0.17,0.27,0.38,0.45,0.52
		c0.78,0.62,1.58,1.2,2.36,1.82c0.52,0.42,1.08,0.82,1.52,1.32c0.93,1.08,0.73,2.27-0.46,3.09c-0.23,0.16-0.49,0.28-0.73,0.44
		c-0.71,0.45-1.4,0.45-2.09-0.03c-1.14-0.79-2.28-1.57-3.4-2.38c-1.99-1.43-3.97-2.87-5.94-4.33c-0.57-0.42-1.09-0.91-1.64-1.36
		c-0.5-0.41-0.66-0.91-0.42-1.52c0.29-0.72,0.48-1.52,0.91-2.15c1.24-1.81,2.54-3.59,3.92-5.29c0.62-0.76,1.48-1.32,2.27-1.92
		c0.39-0.29,0.87-0.49,1.34-0.63c2.31-0.7,4.46,0.83,4.5,3.25C27.68,32.89,27.5,34.09,27.41,35.34"/>
	<path style="clip-path:url(#SVGID_00000152225318839940409100000009884243341932317591_);fill:#FFFFFF;" d="M106.03,42.33
		c-0.04-0.12-0.07-0.24-0.11-0.36c-1.25-0.19-2.49-0.5-3.89-0.47c0.25,1.14,0.46,2.13,0.71,3.29
		C103.96,43.89,105,43.11,106.03,42.33 M112.92,41.15c-0.04,1.15-0.72,1.88-1.27,2.72c-1.22,1.88-2.81,3.39-4.59,4.7
		c-1.4,1.03-2.88,1.94-4.32,2.91c-1.18,0.79-2.35,1.6-3.51,2.41c-0.81,0.57-1.13,0.58-1.91,0.01c-1.11-0.82-1.34-2.36-0.55-3.51
		c0.71-1.03,1.51-1.98,2.5-2.74c0.43-0.33,0.53-0.65,0.44-1.18c-0.14-0.8-0.17-1.62-0.24-2.43c-0.13-1.55-0.82-2.32-2.54-1.82
		c-0.44,0.13-0.83,0.39-1.26,0.56c-1.12,0.44-2.05,0.04-2.47-1.1c-0.23-0.63-0.46-1.27-0.59-1.93c-0.18-0.93,0.11-1.49,0.94-1.94
		c0.34-0.18,0.71-0.36,1.08-0.43c2.33-0.48,4.7-0.85,7.08-0.8c2.88,0.06,5.73,0.48,8.48,1.38c0.91,0.3,1.67,0.81,2.14,1.65
		C112.59,40.09,112.73,40.63,112.92,41.15"/>
	<path style="clip-path:url(#SVGID_00000152225318839940409100000009884243341932317591_);fill:#FFFFFF;" d="M18.95,57.1
		c0.18,0,0.36,0.01,0.53,0c1.41-0.11,1.69-0.64,1.19-1.97c-0.46-1.24-1.42-1.89-2.48-2.5c-0.86-0.49-1.76-0.53-2.68-0.34
		c-1.12,0.24-1.47,1.08-1.07,2.17C14.95,55.87,17.14,57.2,18.95,57.1 M13.95,46.77c1.63-0.06,3.49,0.57,5.34,1.51
		c1.72,0.88,3.24,1.94,4.26,3.57c0.95,1.53,1.87,3.1,1.95,4.99c0.04,0.9-0.23,1.68-0.83,2.34c-0.59,0.66-1.18,1.33-1.77,1.99
		c-0.77,0.85-1.68,1.4-2.86,1.47c-0.35,0.02-0.7,0.12-1.04,0.21c-1.32,0.34-2.59,0.17-3.85-0.31c-2.59-0.98-4.56-2.72-6.09-4.97
		c-0.96-1.42-1.31-3.06-1.22-4.77c0.04-0.74,0.18-1.48,0.34-2.21c0.08-0.37,0.24-0.76,0.47-1.06C9.88,47.95,11.27,46.62,13.95,46.77
		"/>
	<path style="clip-path:url(#SVGID_00000152225318839940409100000009884243341932317591_);fill:#FFFFFF;" d="M53.04,13.19
		c-0.58,0.3-1.21,0.55-1.76,0.93c-1.09,0.76-1.67,1.8-1.58,3.18c0.07,0.99,0.09,1.99,0.1,2.98c0.03,2.11,1.22,3.4,3,4.26
		c0.23,0.11,0.55,0.11,0.8,0.05c0.69-0.16,1.37-0.35,2.04-0.59c0.71-0.25,0.87-0.55,0.79-1.3c-0.08-0.73-0.19-1.46-0.3-2.3
		c-0.42,0.13-0.74,0.24-1.07,0.33c-0.57,0.16-0.99,0.03-1.2-0.37c-0.21-0.41-0.06-0.79,0.44-1.16c0.7-0.52,1.51-0.76,2.35-0.94
		c1.11-0.24,2.21-0.51,3.31-0.77c0.28-0.06,0.56-0.14,0.84-0.14c0.7,0,0.94,0.41,0.89,1.11c-0.07,0.9-0.09,1.83,0.01,2.73
		c0.12,1.03,0.23,2.04-0.11,3.05c-0.43,1.29-1.2,2.21-2.56,2.6c-1.26,0.36-2.48,0.82-3.73,1.21c-2.05,0.63-4.07,0.28-6.08-0.25
		c-0.2-0.05-0.41-0.15-0.57-0.28c-1.02-0.87-2.06-1.74-3.04-2.66c-0.32-0.3-0.56-0.74-0.72-1.16c-1.04-2.59-1.2-5.17-0.24-7.88
		c0.51-1.43,1.01-2.82,2.11-3.87c1.5-1.43,3.19-2.61,5.15-3.32c1.68-0.61,3.5-0.07,4.62,1.27c0.67,0.79,0.47,2.31-0.44,3.08
		c-0.35,0.29-0.76,0.52-1.17,0.74C54.19,14.11,53.65,13.63,53.04,13.19"/>
	<path style="clip-path:url(#SVGID_00000152225318839940409100000009884243341932317591_);fill:#FFFFFF;" d="M94.27,84.74
		c1.23,0.13,2.47,0.24,3.7,0.41c0.45,0.06,0.91,0.21,1.32,0.41c1.17,0.6,1.31,1.96,0.29,2.8c-0.98,0.8-2.06,1.35-3.37,1.44
		c-0.66,0.04-1.34,0.18-1.97,0.39c-0.88,0.31-1.01,1.14-0.27,1.71c0.68,0.51,1.42,0.94,2.15,1.38c0.55,0.33,1.12,0.61,1.68,0.92
		c2.45,1.4,2.71,4.88,0.67,6.62c-1.81,1.55-3.9,2.64-6.11,3.41c-2.84,0.98-4.41,0.25-6.31-1.72c-0.97-1.01-0.63-2.02,0.74-2.35
		c1.04-0.25,2.1-0.36,3.13-0.65c0.52-0.14,1.09-0.42,1.43-0.82c0.96-1.14,0.85-2.26-0.22-3.31c-1.08-1.07-2.19-2.11-3.28-3.17
		c-0.23-0.22-0.45-0.45-0.67-0.69c-1.05-1.17-0.98-2.62-0.23-3.84c0.49-0.8,1.19-1.41,2.05-1.8C90.61,85.17,92.4,84.68,94.27,84.74"
		/>
	<path style="clip-path:url(#SVGID_00000152225318839940409100000009884243341932317591_);fill:#FFFFFF;" d="M44.05,90.47
		c-0.11-0.03-0.22-0.06-0.33-0.09c-0.48,0.89-0.98,1.77-1.43,2.67c-0.12,0.24-0.14,0.56-0.11,0.83c0.02,0.22,0.13,0.54,0.3,0.62
		c0.51,0.27,1.07,0.45,1.6,0.66C45.07,93.47,44.35,91.98,44.05,90.47 M34.97,99.44c0.23-0.81,0.38-1.66,0.7-2.44
		c1.25-3.01,2.49-6.06,4.47-8.69c0.9-1.19,1.92-2.28,2.96-3.35c0.69-0.71,1.21-0.71,1.96-0.05c1.28,1.11,2.28,2.5,2.81,4.08
		c1.33,3.93,2.4,7.95,2.92,12.08c0.06,0.46,0.08,0.93,0.05,1.38c-0.06,0.76-0.41,1.35-1.17,1.62c-0.77,0.28-1.41,0.02-1.94-0.51
		c-0.59-0.58-0.98-1.29-1.19-2.11c-0.21-0.79-0.45-1.58-1.26-2c-0.06-0.03-0.11-0.11-0.17-0.13c-1.41-0.47-2.81-0.99-4.24-1.39
		c-0.52-0.14-0.9,0.35-1.15,0.77c-0.17,0.3-0.21,0.67-0.33,1c-0.21,0.6-0.38,1.23-0.67,1.79c-0.46,0.87-1.19,1.05-2.07,0.6
		C35.59,101.56,34.9,100.77,34.97,99.44"/>
	<path style="clip-path:url(#SVGID_00000152225318839940409100000009884243341932317591_);fill:#FFFFFF;" d="M30.66,88.75
		c-0.11,2.04-0.23,3.95-0.31,5.86c-0.08,1.77-0.07,3.55-0.22,5.31c-0.07,0.87-0.36,1.73-0.63,2.56c-0.08,0.24-0.43,0.49-0.69,0.54
		c-1.45,0.28-2.65-0.51-3.05-1.96c-0.07-0.27-0.15-0.55-0.17-0.83c-0.1-1.73-0.18-3.47-0.25-5.2c-0.02-0.49-0.01-0.99-0.02-1.49
		c-0.04-1.59-0.08-3.18-0.12-4.87c-0.97-0.13-1.99-0.25-2.99-0.41c-0.63-0.1-1.27-0.19-1.87-0.4c-1.19-0.41-1.67-1.13-1.65-2.31
		c0.02-1.02,0.74-2,1.75-2.31c0.57-0.18,1.17-0.3,1.76-0.37c2.52-0.29,5.04-0.16,7.55,0.11c0.87,0.09,1.74,0.32,2.59,0.54
		c1.16,0.31,2.31,0.69,3.47,1c0.71,0.19,1.26,0.51,1.38,1.29c0.13,0.8-0.26,1.38-0.91,1.78c-1.43,0.88-3.01,1.21-4.68,1.2
		C31.32,88.8,31.04,88.77,30.66,88.75"/>
	<path style="clip-path:url(#SVGID_00000152225318839940409100000009884243341932317591_);fill:#FFFFFF;" d="M59.74,102.62
		c-0.74-0.22-1.66-0.48-2.56-0.78c-0.54-0.18-1.05-0.42-1.57-0.64c-2.21-0.93-3.67-2.5-4.19-4.87c-0.27-1.26-0.09-2.51,0.39-3.65
		c0.79-1.89,2.01-3.49,3.72-4.69c1.34-0.94,2.85-1.6,4.44-1.61c1.58-0.01,3.28,0.05,4.59,1.29c1.34,1.27,1.06,3.7-0.56,4.61
		c-0.69,0.39-1.39,0.28-2.06,0.01c-0.72-0.29-1.42-0.49-2.13-0.04c-0.77,0.5-1.33,1.22-1.57,2.08c-0.2,0.7-0.25,1.47-0.22,2.21
		c0.05,1.25,0.78,1.86,2.03,1.74c1-0.1,1.94-0.42,2.78-0.99c0.47-0.32,0.94-0.63,1.43-0.92c0.58-0.34,1.21-0.41,1.85-0.21
		c0.89,0.27,1.44,1.05,1.22,1.96c-0.16,0.67-0.47,1.36-0.89,1.89c-0.93,1.15-2.1,1.99-3.66,2.16
		C61.84,102.29,60.9,102.46,59.74,102.62"/>
	<path style="clip-path:url(#SVGID_00000152225318839940409100000009884243341932317591_);fill:#FFFFFF;" d="M65.79,64.17
		c1.1,0.17,2.15,0.2,3.11,0.51c0.67,0.21,1.26,0.75,1.79,1.25c0.35,0.33,0.21,0.83-0.16,1.13c-0.29,0.23-0.67,0.39-1.03,0.51
		c-0.94,0.32-1.91,0.56-2.83,0.92c-0.87,0.34-1.16,1.12-0.7,1.77c0.18,0.25,0.56,0.36,0.87,0.52c1.98,1.02,3.68,2.29,4.01,4.7
		c0.21,1.53-0.19,2.76-1.41,3.89c-1.77,1.64-3.8,2.7-6.04,3.43c-1.24,0.4-2.46,0.56-3.71-0.11c-0.93-0.5-1.41-1.29-1.73-2.19
		c-0.27-0.75,0.18-1.36,1.11-1.43c1.84-0.13,3.24-1.17,4.7-2.1c0.72-0.46,0.84-1.03,0.56-1.83c-0.3-0.89-0.82-1.53-1.72-1.88
		c-0.59-0.23-1.14-0.57-1.72-0.84c-2.17-1.04-2.67-2.46-1.51-4.58c0.87-1.58,2.2-2.69,3.95-3.2C64.15,64.41,65.01,64.32,65.79,64.17
		"/>
	<path style="clip-path:url(#SVGID_00000152225318839940409100000009884243341932317591_);fill:#FFFFFF;" d="M37.29,75.28
		c-0.08,1.24-0.17,2.54-0.24,3.85c-0.03,0.5,0,1-0.04,1.49c-0.05,0.64-0.1,1.29-0.86,1.57c-0.78,0.28-1.48,0.08-2.11-0.58
		c-1.12-1.18-1.69-2.62-1.9-4.2c-0.42-3.07-0.55-6.14-0.47-9.24c0.03-1.29,0.69-2.16,1.67-2.77c1.39-0.86,2.86-1.63,4.49-1.91
		c1.1-0.19,2.26-0.18,3.38-0.12c0.69,0.03,1.39,0.29,2.06,0.51c0.36,0.12,0.71,0.32,1.02,0.54c0.4,0.28,0.65,0.68,0.52,1.19
		c-0.14,0.55-0.46,0.99-1.05,1.09c-0.48,0.09-0.99,0.08-1.48,0.11c-0.39,0.02-0.78-0.02-1.17,0.04c-1.29,0.18-2.58,0.38-3.92,0.59
		v3.77c0.19,0,0.42,0.01,0.65,0c1.87-0.13,3.74-0.3,5.61-0.4c0.44-0.02,0.92,0.12,1.35,0.27c0.57,0.2,0.97,0.59,1,1.25
		c0.02,0.62-0.34,1.01-0.87,1.22c-0.99,0.39-1.97,0.84-3,1.06C40.44,74.93,38.92,75.05,37.29,75.28"/>
	<path style="clip-path:url(#SVGID_00000152225318839940409100000009884243341932317591_);fill:#FFFFFF;" d="M103.18,60.45
		c0.33,1.12,0.68,2.15,0.93,3.21c0.28,1.22,0.1,2.4-0.62,3.46c-0.36,0.53-0.56,0.61-1.13,0.36c-1.07-0.48-1.8-1.2-2.31-2.34
		c-0.82-1.83-1.28-3.75-1.86-5.64c-0.35-1.14-0.06-2.03,0.71-2.92c1.12-1.31,2.56-2.06,4.15-2.45c1.85-0.45,3.76-0.78,5.65-0.97
		c2.19-0.21,4.22,0.41,5.92,1.87c1.32,1.14,1.3,2.43,0.85,4.11c-0.23,0.86-1.07,1.16-1.86,1.19c-1.34,0.06-2.71,0.12-4.03-0.09
		c-1.36-0.22-2.68-0.13-4.03-0.09C104.77,60.18,104,60.34,103.18,60.45"/>
	<path style="clip-path:url(#SVGID_00000152225318839940409100000009884243341932317591_);fill:#FFFFFF;" d="M48.45,75.16
		c0.1-1.73,0.17-3.15,0.26-4.56c0.12-1.92,0.64-3.69,1.96-5.17c0.71-0.8,1.66-1.08,2.61-1.33c0.86-0.23,1.89,0.57,2.15,1.51
		c0.29,1.08,0.32,2.17,0.22,3.28c-0.11,1.23-0.19,2.47-0.24,3.71c-0.09,2.13-0.12,4.26-0.26,6.38c-0.06,0.91-0.28,1.82-0.52,2.71
		c-0.33,1.22-1.45,1.73-2.49,1.01c-2-1.38-3.76-2.97-3.69-5.71C48.47,76.27,48.45,75.56,48.45,75.16"/>
	<path style="clip-path:url(#SVGID_00000152225318839940409100000009884243341932317591_);fill:#FFFFFF;" d="M75.25,11.92
		c-0.15,2.68-0.03,5.31-0.96,7.83c-0.32,0.88-0.38,1.87-0.53,2.81c-0.2,1.28-0.64,2.46-1.33,3.56c-1.08,1.73-3.11,1.76-4.23,0.03
		c-0.75-1.17-1-2.47-1.06-3.85c-0.12-2.79,0.58-5.4,1.53-7.98c0.39-1.07,1.17-1.86,1.92-2.65c0.8-0.85,1.7-1.6,2.77-2.12
		c0.88-0.43,1.39-0.26,1.71,0.67c0.05,0.13,0.1,0.27,0.11,0.41C75.21,11.08,75.23,11.54,75.25,11.92"/>
	<path style="clip-path:url(#SVGID_00000152225318839940409100000009884243341932317591_);fill:#FFFFFF;" d="M41.19,33.53
		c-1.28-0.17-2.41-0.43-3.33-1.26c-1.41-1.29-2.84-2.57-4.25-3.87c-0.86-0.79-1.71-1.6-2.54-2.43c-0.45-0.45-0.89-0.92-1.27-1.43
		c-0.99-1.35-0.97-2.78-0.21-4.21c0.53-0.99,1.34-1.35,2.41-1c0.69,0.23,1.39,0.56,1.97,0.99c0.79,0.59,1.5,1.29,2.21,1.99
		c1.04,1.02,2.08,2.04,3.04,3.13c1.24,1.41,2.42,2.88,3.58,4.35c1.05,1.34,0.14,2.89-0.81,3.5C41.75,33.47,41.4,33.48,41.19,33.53"
		/>
	<path style="clip-path:url(#SVGID_00000152225318839940409100000009884243341932317591_);fill:#FFFFFF;" d="M41.94,53.41
		c1.28-0.13,2.11-0.47,2.83-1.17c0.15-0.15,0.34-0.48,0.27-0.59c-0.12-0.2-0.4-0.39-0.64-0.42c-0.79-0.11-1.52,0.12-2.25,0.51
		C42.08,52.29,42.01,52.84,41.94,53.41 M45.61,54.5c0.35,0.75,0.74,1.51,1.08,2.28c0.13,0.29,0.24,0.62,0.22,0.92
		c-0.02,0.29-0.14,0.7-0.34,0.8c-0.2,0.1-0.64-0.03-0.84-0.21c-0.75-0.65-1.46-1.34-2.16-2.04c-0.35-0.35-0.65-0.68-1.2-0.33
		c-0.12,0.66-0.22,1.36-0.4,2.04c-0.18,0.69-1.15,1.22-1.83,1.08c-0.49-0.1-0.78-0.52-0.8-1.23c-0.02-0.82-0.01-1.64,0.02-2.45
		c0.04-1.24,0.12-2.48,0.18-3.73c0.03-0.66,0.28-1.14,0.95-1.38c0.86-0.31,1.67-0.81,2.56-1c0.73-0.16,1.57-0.12,2.3,0.08
		c1.52,0.41,2.17,2.31,1.35,3.76C46.4,53.59,45.97,54.03,45.61,54.5"/>
	<path style="clip-path:url(#SVGID_00000152225318839940409100000009884243341932317591_);fill:#FFFFFF;" d="M60.96,57.86
		c0.76-0.2,1.39-0.3,1.96-0.53c0.33-0.14,0.66-0.45,0.42-0.93c-0.18-0.36-0.43-0.52-0.85-0.39c-0.46,0.15-0.94,0.24-1.45,0.37
		C61.01,56.82,60.99,57.23,60.96,57.86 M60.79,54.1c0.59-0.06,1.12-0.1,1.64-0.17c0.65-0.07,1.03-0.47,1-1.01
		c-0.02-0.51-0.36-0.84-1.01-0.9c-0.52-0.04-1.04-0.01-1.64-0.01V54.1z M64.66,54.44c0.26,0.58,0.55,1.04,0.67,1.54
		c0.46,2-0.57,3.48-2.72,3.69c-1.03,0.1-2.1-0.15-3.14-0.33c-0.24-0.04-0.52-0.38-0.61-0.64c-0.16-0.5-0.24-1.03-0.27-1.56
		c-0.09-1.52-0.16-3.04-0.21-4.56c-0.05-1.56,0.44-2.17,1.96-2.54c0.96-0.23,1.9-0.53,2.91-0.14c1.46,0.55,2.13,1.63,1.82,3.15
		C64.97,53.54,64.79,54.01,64.66,54.44"/>
	<path style="clip-path:url(#SVGID_00000152225318839940409100000009884243341932317591_);fill:#FFFFFF;" d="M54.81,53.53
		c-0.03-0.53-0.08-1.06-0.07-1.59c0.01-0.31,0.05-0.65,0.19-0.91c0.2-0.38,0.5-0.72,1.01-0.62c0.45,0.1,0.6,0.49,0.64,0.89
		c0.07,0.78,0.1,1.55,0.11,2.33c0.01,0.6-0.09,1.21-0.05,1.8c0.06,0.81-0.18,1.53-0.48,2.26c-0.66,1.63-2.97,2.4-4.51,1.77
		c-0.1-0.04-0.21-0.08-0.28-0.15c-1.11-1.02-2.15-2.14-2.34-3.68c-0.16-1.29-0.07-2.62-0.08-3.93c0-0.18,0.03-0.35,0.07-0.53
		c0.19-0.99,0.6-1.49,1.25-1.5C51,49.66,51.91,50.4,52,51.22c0.12,1.12,0.15,2.26,0.2,3.39c0.03,0.64,0.08,1.25,0.49,1.81
		c0.35,0.49,0.81,0.53,1.32,0.46c0.51-0.07,0.72-0.48,0.75-0.91c0.06-0.81,0.02-1.63,0.02-2.44H54.81z"/>
	<path style="clip-path:url(#SVGID_00000152225318839940409100000009884243341932317591_);fill:#FFFFFF;" d="M77.72,53.68
		c-1.76-0.03-2.59,0.73-2.51,2.18c0.03,0.58,0.43,0.98,1.08,1.1c0.57,0.1,0.88-0.06,1.08-0.73C77.61,55.43,77.81,54.61,77.72,53.68
		 M72.65,54.93c-0.01-2.36,1.32-3.9,3.47-4.03c2.02-0.12,3.64,1.41,3.63,3.45c-0.01,1.16-0.36,2.24-0.86,3.26
		c-1.13,2.3-3.68,2.53-5.26,0.5C72.94,57.23,72.65,56.29,72.65,54.93"/>
	<path style="clip-path:url(#SVGID_00000152225318839940409100000009884243341932317591_);fill:#FFFFFF;" d="M65.14,34.92
		c-0.05,0.56-0.09,1.11-0.17,1.67c-0.06,0.49-0.1,1-0.27,1.45c-0.09,0.24-0.43,0.53-0.67,0.54c-0.25,0.01-0.57-0.23-0.75-0.45
		c-0.16-0.2-0.25-0.53-0.25-0.79c0.05-1.45,0.08-2.91,0.22-4.35c0.1-1.1,0.57-1.36,1.58-0.96c0.42,0.17,0.79,0.46,1.16,0.73
		c1.03,0.76,1.36,0.72,2.22-0.24c0.35-0.39,0.71-0.81,1.15-1.07c0.7-0.43,1.19-0.28,1.57,0.46c0.22,0.43,0.4,0.93,0.42,1.41
		c0.04,1.31,0.04,2.62-0.04,3.93c-0.06,1.11-0.41,1.55-0.97,1.52c-0.55-0.03-0.89-0.5-1.02-1.55c-0.08-0.69-0.09-1.4-0.14-2.29
		c-0.35,0.32-0.6,0.54-0.84,0.76c-0.92,0.83-1.68,0.77-2.43-0.2c-0.17-0.22-0.35-0.42-0.52-0.63
		C65.31,34.89,65.22,34.91,65.14,34.92"/>
	<path style="clip-path:url(#SVGID_00000152225318839940409100000009884243341932317591_);fill:#FFFFFF;" d="M84.19,55.96
		c-0.66-0.5-1.13-0.86-1.6-1.21c-0.57-0.42-0.64-1-0.47-1.62c0.32-1.2,0.93-2.14,2.26-2.41c0.66-0.13,1.31-0.33,1.97-0.44
		c1.05-0.17,1.49,0.06,1.68,0.82c0.18,0.71-0.14,1.08-1.2,1.42c-0.27,0.09-0.56,0.14-0.82,0.24c-0.53,0.22-0.61,0.68-0.18,1.08
		c0.13,0.12,0.29,0.21,0.44,0.3c1.9,1.2,2.03,3.44-0.16,4.96c-0.75,0.52-1.64,0.69-2.54,0.64c-0.34-0.02-0.69-0.17-1-0.32
		c-0.41-0.2-0.65-0.56-0.6-1.04c0.06-0.51,0.44-0.7,0.89-0.78c0.41-0.07,0.94,0.02,1.12-0.45C84.16,56.71,84.15,56.22,84.19,55.96"
		/>
	<path style="clip-path:url(#SVGID_00000152225318839940409100000009884243341932317591_);fill:#FFFFFF;" d="M52.22,34.42
		c0.62,0.09,1.16,0.16,1.84,0.26c0.01-0.33,0.03-0.76,0.04-1.2c0.01-0.39-0.01-0.78,0.03-1.17c0.07-0.56,0.43-0.91,0.86-0.94
		c0.42-0.02,0.87,0.3,0.98,0.82c0.12,0.59,0.19,1.2,0.18,1.79c-0.03,1.17-0.12,2.33-0.2,3.5c-0.02,0.28-0.1,0.56-0.18,0.83
		c-0.1,0.38-0.2,0.83-0.67,0.85c-0.52,0.02-0.86-0.37-0.98-0.83c-0.15-0.57-0.18-1.17-0.26-1.79c-0.55,0.08-1.06,0.15-1.62,0.23
		c-0.17,0.96,0.04,2.08-1.12,2.62c-0.5-0.16-0.75-0.55-0.85-1.07c-0.35-1.8-0.26-3.6-0.01-5.4c0.06-0.46,0.28-0.83,0.79-0.85
		c0.46-0.02,0.68,0.33,0.78,0.73C51.96,33.36,52.09,33.91,52.22,34.42"/>
	<path style="clip-path:url(#SVGID_00000152225318839940409100000009884243341932317591_);fill:#FFFFFF;" d="M60.79,44.59l-0.02,0
		c0.03,0.28,0.01,0.58,0.09,0.84c0.12,0.42,0.45,0.64,0.88,0.64c0.41,0.01,0.68-0.22,0.77-0.6c0.09-0.38,0.17-0.77,0.15-1.15
		c-0.04-0.6-0.59-1.04-1.16-1.02c-0.51,0.02-0.7,0.29-0.72,1.08C60.78,44.45,60.79,44.52,60.79,44.59 M61.22,48.06
		c-1.84-0.02-2.68-1.35-2.78-3.14c-0.04-0.77,0.24-1.62,0.58-2.34c0.9-1.88,3.32-1.92,4.76-0.44c1.51,1.56,0.58,4.86-1.54,5.68
		C61.91,47.95,61.56,47.98,61.22,48.06"/>
	<path style="clip-path:url(#SVGID_00000152225318839940409100000009884243341932317591_);fill:#FFFFFF;" d="M68.01,55.15
		c0-1.19,0-2.38,0-3.57c0-0.5,0.33-0.7,0.7-0.95c1.29-0.87,2.01-0.41,1.94,1.04c-0.1,2.06,0.28,4.09,0.1,6.13
		c-0.1,1.16-0.44,1.6-1.51,1.87c-0.69,0.18-0.99-0.03-1.05-0.73c-0.11-1.26-0.22-2.51-0.33-3.77L68.01,55.15z"/>
	<path style="clip-path:url(#SVGID_00000152225318839940409100000009884243341932317591_);fill:#FFFFFF;" d="M74.86,34.45
		c0.49,0,0.92-0.05,1.33,0.02c0.24,0.04,0.6,0.24,0.65,0.43c0.06,0.26-0.03,0.7-0.22,0.84c-0.41,0.31-0.91,0.52-1.41,0.69
		c-0.35,0.12-0.62,0.19-0.4,0.71c0.49,0,1.01-0.05,1.52,0.02c0.32,0.04,0.62,0.24,0.92,0.37c-0.14,0.34-0.22,0.72-0.44,1
		c-0.15,0.19-0.49,0.27-0.75,0.34c-0.51,0.13-1.04,0.24-1.56,0.31c-0.75,0.11-1.12-0.2-1.24-0.96l-0.01-0.11
		c-0.04-1.38-0.07-2.76-0.11-4.14c-0.03-0.93,0.33-1.56,1.26-1.84c0.57-0.17,1.12-0.44,1.69-0.64c0.23-0.08,0.5-0.19,0.71-0.13
		c0.27,0.08,0.64,0.26,0.72,0.49c0.08,0.22-0.05,0.67-0.24,0.82c-0.38,0.3-0.86,0.48-1.31,0.68c-0.26,0.11-0.55,0.15-0.82,0.24
		C74.72,33.71,74.62,34,74.86,34.45"/>
	<path style="clip-path:url(#SVGID_00000152225318839940409100000009884243341932317591_);fill:#FFFFFF;" d="M60.18,34.37
		c-0.52,0.52-0.67,1.11-0.56,1.77c0.06,0.34,0.2,0.61,0.62,0.58c0.39-0.03,0.76-0.18,0.75-0.6C60.96,35.47,60.82,34.81,60.18,34.37
		 M57.38,35.57c0.1-1.06,0.37-1.99,1.14-2.73c1.21-1.18,2.97-0.74,3.4,0.9c0.23,0.87,0.7,1.74,0.32,2.69
		c-0.15,0.36-0.26,0.74-0.45,1.07c-1.02,1.68-2.91,1.63-3.86-0.12C57.64,36.83,57.56,36.17,57.38,35.57"/>
	<path style="clip-path:url(#SVGID_00000152225318839940409100000009884243341932317591_);fill:#FFFFFF;" d="M67.68,43
		c0.04,0.5,0.06,0.82,0.08,1.18c0.31,0,0.58,0,0.85,0c0.32,0,0.65-0.04,0.95,0.04c0.2,0.05,0.44,0.25,0.51,0.44
		c0.05,0.12-0.13,0.39-0.28,0.51c-0.21,0.18-0.48,0.29-0.74,0.42c-0.32,0.15-0.64,0.27-0.98,0.41c-0.02,0.42-0.03,0.8-0.07,1.18
		c-0.09,0.71-0.32,0.97-0.86,1.01c-0.58,0.05-0.85-0.15-1.01-0.84c-0.1-0.41-0.15-0.84-0.14-1.26c0.03-1.27,0.11-2.54,0.15-3.82
		c0.02-0.6,0.34-0.95,0.87-1.04c1.05-0.18,2.1-0.33,3.16-0.41c0.68-0.05,0.93,0.48,0.56,1.07c-0.36,0.57-0.95,0.68-1.56,0.78
		C68.7,42.74,68.24,42.87,67.68,43"/>
	<path style="clip-path:url(#SVGID_00000152225318839940409100000009884243341932317591_);fill:#FFFFFF;" d="M80.45,51.12
		c0.21-0.68,0.34-1.28,0.58-1.82c0.09-0.2,0.44-0.42,0.65-0.4c0.22,0.02,0.49,0.28,0.6,0.5c0.34,0.66-0.05,1.92-0.7,2.26
		c-0.19,0.1-0.51,0.15-0.69,0.05C80.69,51.6,80.58,51.31,80.45,51.12"/>
	<path style="clip-path:url(#SVGID_00000152225318839940409100000009884243341932317591_);fill:#FFFFFF;" d="M67.04,112.4h0.02
		v-0.01L67.04,112.4L67.04,112.4z M63.56,112.35h0.01v0.01L63.56,112.35L63.56,112.35z M65.04,112.33h0.01v0.01L65.04,112.33
		L65.04,112.33z M65.02,112.33h0.02v0.01L65.02,112.33L65.02,112.33z M63.64,112.27c0.02,0,0.05-0.01,0.07-0.03h0.01
		c0,0.03-0.02,0.05-0.05,0.05h-0.02V112.27z M66.91,112.2h0.02v0.01l0,0v0.01l0.01,0.02v0.01l-0.01,0.01H66.9v-0.01l0.01-0.01V112.2
		z M63.1,112.2L63.1,112.2c0.01,0.02,0.02,0.04,0.04,0.05v0.01l-0.01,0.01l-0.03-0.01v-0.01L63.1,112.2L63.1,112.2z M67.16,112.19
		L67.16,112.19l0.01,0.01h-0.01V112.19z M67.16,112.16L67.16,112.16l0.01,0.02h-0.01V112.16z M63.75,112.15L63.75,112.15l0.01,0.03
		h-0.01l-0.01,0.01V112.15z M67.12,112.13l0.02,0.01v0.01l0,0.05h-0.01l-0.01-0.01L67.12,112.13L67.12,112.13z M67.19,112.13
		L67.19,112.13l0,0.08h0V112.13z M67.18,112.08L67.18,112.08l0.01-0.01v0.05h0L67.18,112.08z M65.36,112l0.03,0v0.01l-0.03,0.12
		h-0.01l-0.01-0.09C65.35,112.05,65.36,112.03,65.36,112 M67.12,111.89L67.12,111.89l0.01,0.04l-0.01,0.03v0.01l0.01,0.01
		l-0.01,0.11h-0.01l0-0.01l0-0.05v-0.08l0-0.03C67.12,111.92,67.12,111.91,67.12,111.89 M63.75,111.86L63.75,111.86l0.02,0.17
		l-0.01,0.03v0.01l0.01,0.01c-0.01,0-0.01,0.01-0.01,0.05h-0.01V111.86z M67.15,111.86L67.15,111.86l0.01,0.01h-0.01V111.86z
		 M66.96,111.83L66.96,111.83l0.01,0.01h-0.01V111.83z M67.22,111.82L67.22,111.82l0.01,0.03h-0.01V111.82z M67.22,111.79
		L67.22,111.79l0.01,0.01h-0.01V111.79z M65.37,111.77h0.02v0.01l-0.02,0.01V111.77z M65.42,111.76h0.01l-0.01,0.03v0.03l0.01,0.01
		l-0.02,0.01c-0.01,0.03-0.02,0.04-0.03,0.04h-0.01l0.02-0.07C65.41,111.8,65.42,111.78,65.42,111.76 M64.97,111.75h0.04v0.07h-0.05
		l0.01-0.05L64.97,111.75z M67.22,111.73L67.22,111.73l0.01,0.03h-0.01V111.73z M67.23,111.67L67.23,111.67L67.23,111.67v0.03h-0.01
		v0L67.23,111.67z M67.23,111.65L67.23,111.65l0.01,0.01h-0.01V111.65z M66.69,111.66l0.02-0.02h0.01v0.01l0.05,0.06v0.03h-0.02
		c0-0.02-0.01-0.03-0.03-0.03L66.69,111.66z M67.12,111.61L67.12,111.61l0.01,0.11h-0.01l-0.01-0.07L67.12,111.61z M67.24,111.6
		L67.24,111.6l0.01,0.05h-0.01L67.24,111.6z M66.91,111.62l0.01-0.01l0,0.05h0l0,0.11l0,0.03c0.01,0.03,0.02,0.08,0.03,0.16
		l-0.01,0.01v0.01l0.01,0.01v0.01c-0.02-0.01-0.03-0.02-0.03-0.04v-0.01l0.01,0l-0.01-0.02v-0.01l0.01-0.03l-0.01-0.04v-0.18V111.62
		L66.91,111.62z M63.77,111.55L63.77,111.55l0.01,0v0.02h-0.01L63.77,111.55L63.77,111.55z M66.92,111.52L66.92,111.52L66.92,111.52
		v0.03v0.03l0.01,0.01h-0.01l-0.01-0.03v-0.02L66.92,111.52z M66.9,111.49L66.9,111.49l0,0.01h0V111.49z M66.94,111.4L66.94,111.4
		l0.02,0.07v0.01l0,0.01l0,0.04v0.07l-0.01,0.01l0.01-0.06L66.94,111.4L66.94,111.4z M65.18,111.3h0.07v0.01
		c-0.02,0-0.03,0.01-0.03,0.02h-0.03L65.18,111.3L65.18,111.3z M63.35,111.29h0.03l0.01,0.03h0.01l0.01-0.01h0.01v0.01
		c0,0.02-0.01,0.04-0.02,0.04v0.01l0.01,0l-0.03,0.01v-0.05l-0.01-0.01h0.01L63.35,111.29L63.35,111.29z M63.02,111.27h-0.01
		L63,111.28l0.01,0.08h0.01l0.01-0.02v-0.01l-0.01-0.01l0.01-0.01V111.27z M67.14,111.25L67.14,111.25l0.01,0.03h-0.01V111.25z
		 M67.21,111.13L67.21,111.13l0.01,0.01h-0.01V111.13z M67.21,111.1L67.21,111.1l0.01,0.02h-0.01V111.1z M63.58,110.97L63.58,110.97
		l0.01,0.03h-0.01V110.97z M63.03,110.97h0.01v0.03h-0.01V110.97z M67.2,110.96h0.01v0l-0.01,0.03l0.01,0.03v0.07H67.2l0.01-0.03
		l-0.01-0.07V110.96z M63.03,110.94l0.01,0.01h-0.01V110.94z M63.58,110.93c0-0.01,0-0.02,0.01-0.02l-0.01,0.03h-0.01V110.93z
		 M67.11,110.87L67.11,110.87l0.01,0.01c0,0.04,0.01,0.07,0.02,0.07l0.04,0.03l0,0.11v0l0,0.01h0l0,0.03l0,0.02l0.01,0.08
		l-0.01,0.03l0.01,0.03v0.22l0,0.03l0,0.03h-0.01v-0.07l-0.01-0.01h0.01l-0.01-0.03v-0.1l-0.01-0.13l0.01-0.02
		c-0.01,0-0.02-0.02-0.02-0.05h0.01c-0.01-0.06-0.02-0.09-0.05-0.09l0.01-0.03v0l-0.01-0.01l0.01-0.04v0l-0.01-0.01h0.01l-0.01-0.05
		l0.01-0.02l-0.01-0.03L67.11,110.87L67.11,110.87z M67.1,110.81L67.1,110.81l0.02,0.03h-0.01l-0.01-0.01V110.81z M63.03,110.77
		l0.01,0.01v0.03l-0.01,0.01h-0.01l-0.01-0.01L63.03,110.77z M67.17,110.69L67.17,110.69l0.02,0.07l-0.01,0.03v0.01l0,0.01h-0.01
		v-0.03l0.01-0.06v-0.01L67.17,110.69L67.17,110.69z M67.16,110.59L67.16,110.59l0.01-0.01l0,0.02l0,0.01v0.01l0,0.01l0,0.02h-0.01
		L67.16,110.59z M65.94,110.55L65.94,110.55l0,0.02h0V110.55z M67.1,110.52L67.1,110.52c0,0.06,0.01,0.11,0.03,0.14v0l-0.01,0.01
		l0.02,0.01l-0.01,0.01l0.01,0.02l-0.01,0.05h-0.01l-0.01-0.03h0.01l-0.01-0.16V110.52z M66.17,110.51L66.17,110.51l0.01,0.01h-0.01
		V110.51z M67.17,110.45h0.01l-0.01,0.09l0.01,0.02v0.02l-0.01-0.01v-0.05L67.17,110.45z M67.17,110.43l0.01-0.01v0.02L67.17,110.43
		L67.17,110.43z M67.17,110.39L67.17,110.39l0.01,0.02h-0.01V110.39z M67.18,110.34L67.18,110.34l0,0.03h0V110.34z M67.17,110.29
		L67.17,110.29l0.01-0.01v0.04h0L67.17,110.29z M63.04,110.12h0.01v0.03h-0.01V110.12z M63.71,110.07h0.01v0.01l-0.01,0v0.01
		l0.01,0.05h-0.01l-0.01,0V110.07z M66.9,110.02L66.9,110.02l0,0.02h0V110.02z M67.12,109.93l0.02-0.01v0.03h-0.02V109.93z
		 M66.91,109.91L66.91,109.91l0.01,0.08h-0.01l-0.01-0.01l0.01-0.03l-0.01-0.03L66.91,109.91z M64.36,109.91
		c0.01,0,0.03,0.04,0.05,0.12v0.02h-0.02v-0.01l0.01-0.01l-0.05-0.11L64.36,109.91z M66.92,109.67L66.92,109.67l0.01,0.02
		l-0.01,0.03v0.01l0.01,0.01l-0.01,0.16h-0.01l-0.01-0.04l0.01-0.01v-0.13L66.92,109.67z M63.64,109.68l0.01-0.02v0.01L63.64,109.68
		L63.64,109.68z M63.6,109.66l0.01,0.01v0.01l-0.02,0h-0.01L63.6,109.66z M63.65,109.64L63.65,109.64l0.01,0.01h-0.01V109.64z
		 M66.92,109.56L66.92,109.56l0.01,0.07h-0.01V109.56z M67.22,109.48l0.01,0.01h-0.01V109.48z M66.91,109.44h0.02v0.06h-0.01v-0.01
		l0.01-0.03L66.91,109.44L66.91,109.44z M67.23,109.41h0.02v-0.01h-0.02V109.41z M64.46,109.31L64.46,109.31l0,0.01h0V109.31z
		 M67.16,109.25h0.01l0.01,0.04h0l0.01-0.01l-0.01,0.21v0.01l0.01,0.07h-0.01v0.02l0.01,0h-0.01l0.01,0.07v0.07l0,0.03l0,0.01
		l0,0.06v0.01l0,0.03l0,0.02v0.07l0,0.03l0,0l0,0.03l0,0.02h0l-0.01,0.01l0.01,0.02v0.01l-0.01,0.01v0.01l0.01,0l-0.01,0.11v0.03
		l0.01,0.01h-0.01l0,0.01l-0.01-0.03l0.01-0.19l-0.01-0.07l0.01-0.01l-0.01-0.03v-0.07c0-0.12,0-0.22-0.01-0.3l0.01-0.24v-0.03
		L67.16,109.25z M67.23,109.33h0.02v-0.09h-0.02V109.33z M66.36,109.22c0-0.01,0.02-0.01,0.05-0.02h0v0.01h0l-0.05,0.04h-0.01
		V109.22z M67.15,109.18h0.01v0.06h-0.01l-0.01-0.05V109.18z M66.98,109.16L66.98,109.16l0,0.01h0V109.16z M67.18,109.13
		L67.18,109.13l0.01,0.02h-0.01V109.13z M63.09,109.15l0.02-0.02h0l-0.01,0.08H63.1l0-0.01l0-0.01L63.09,109.15z M66.45,109.11
		L66.45,109.11l0.02,0.01v0.01l-0.01,0.01c-0.04,0-0.06,0.01-0.07,0.02h-0.01v-0.03l0.03-0.01l0.03,0.01L66.45,109.11z M63.11,109.1
		L63.11,109.1l0.01,0.02h-0.01V109.1z M66.91,109.09h0.02c0,0.02,0.01,0.03,0.02,0.03l-0.01,0.03l0.01,0.03l-0.01,0.11l0,0.01
		c0,0-0.01,0.03-0.01,0.07l0.01,0.02l-0.01,0.05l-0.02-0.01l0.01-0.04l-0.01-0.06c0.01,0,0.02,0,0.02-0.01v-0.02l-0.01-0.01
		l0.01-0.01v-0.11h0c0,0.01-0.01,0.02-0.01,0.02H66.9l0.01-0.05V109.09z M66.13,109.04h0.01l-0.01,0.01V109.04z M63.2,108.95
		L63.2,108.95l0.01,0.01H63.2V108.95z M63.97,108.93l0.07,0.03l-0.11-0.01v-0.01C63.96,108.94,63.97,108.94,63.97,108.93
		 M63.34,108.93L63.34,108.93c0.02,0,0.03,0,0.03,0.01L63.34,108.93L63.34,108.93z M63.24,108.93h0.01l-0.01,0.01V108.93z
		 M63.78,108.87h0.02v0.01L63.78,108.87L63.78,108.87z M63.85,108.86L63.85,108.86l0.02,0.01h-0.01L63.85,108.86z M63.65,108.86
		l0.02-0.01c0,0.01,0.01,0.01,0.03,0.01v0.01h-0.05V108.86z M63.27,108.83c-0.01,0-0.02,0.01-0.02,0.03
		c-0.02,0.01-0.04,0.02-0.04,0.03v0.01l0.01,0.03l-0.05,0.01l-0.01-0.01h-0.01v0.03h-0.03l-0.02,0.01c0,0.01,0.01,0.02,0.02,0.02
		V109l-0.03,0.01v0.02h0.01v0.01c-0.03,0-0.05,0.04-0.05,0.13l0.01,0.01l-0.01,0.03v0.04l0.01,0h-0.01l-0.01,0.01
		c-0.04,0.08-0.06,0.16-0.06,0.24l0.01,0.03l-0.01,0.03l0.01,0.07v0.01l-0.01,0.01v0.01l0.01,0.01l-0.01,0.04v0.02l0.01,0.03
		l-0.01,0l0.01,0.08l-0.01,0.03l0.01,0.03v0.09L63.01,110l0.01,0v0.01l-0.01,0l0.01,0.06l-0.01,0.04l0.01,0.08v0.13l-0.01,0.03
		l0.01,0.02l-0.01,0.11c0.01,0.01,0.02,0.07,0.03,0.19l-0.01,0.01l0.01,0.02l-0.01,0.03l0.01,0.01c-0.03,0-0.04,0.07-0.04,0.2
		l0.01,0.02l-0.01,0l0.01,0.12l-0.01,0.17h0.01l0.01-0.05v-0.06l0.01,0.01v0.13c0,0.04,0,0.07-0.01,0.09v0.01l0.01,0.01l-0.02,0.06
		l0.01,0.02v0.01c-0.01,0-0.01-0.01-0.01-0.04H63l0.01,0.14l-0.01,0.01v0.01l0.01,0l-0.03,0.24l0.01,0.02
		c0.01,0,0.02-0.01,0.02-0.03l-0.01-0.04v-0.01h0.01v0.05l0.01,0.05l-0.01,0c0.02,0.12,0.03,0.19,0.03,0.19l-0.01,0.1
		c0,0.05,0.01,0.09,0.02,0.11h0.01l0.01,0l-0.01-0.07v-0.09l-0.01,0h0.02l0,0.08v0.08c0,0.04,0.07,0.05,0.2,0.05l0-0.01l0.01,0.01
		l0.04-0.01c0.01,0,0.02,0.01,0.02,0.02h0.01v-0.01l-0.01-0.01h0.05v0.02h0.03v-0.02h0.01v0.02h0.02l0.01-0.02l0.03,0.01h0.04v0.02
		h0.03v-0.02h0.15c0.03-0.02,0.05-0.11,0.05-0.27l-0.01-0.12l0.01-0.01l-0.01-0.03v-0.09l-0.01-0.01l0.01-0.01v-0.01l0.02-0.17
		c-0.01-0.04-0.01-0.09-0.01-0.16l0.01-0.35v-0.04l0-0.1l0,0l0.01-0.02v0l-0.01-0.01l0.01-0.01v-0.03l0.01-0.1l-0.01-0.01l0.02-0.13
		l-0.02-0.01l0.02-0.01l-0.01-0.02l0.01-0.03v-0.03l-0.01,0c0.01,0,0.01-0.02,0.02-0.06l-0.01-0.01h0.01c0-0.03,0.01-0.05,0.01-0.06
		v-0.03c0-0.02-0.01-0.03-0.04-0.03v-0.11l0.01-0.06c-0.01-0.02-0.01-0.09-0.01-0.21v0l-0.01-0.01h0.03c0,0.05,0.01,0.08,0.02,0.08
		c0.02,0.09,0.05,0.16,0.08,0.21l-0.01,0.03l0.01,0.01l0.18,0.53c0.04,0.13,0.07,0.21,0.08,0.22c0,0.03,0.06,0.22,0.19,0.59
		c0.03,0.08,0.06,0.19,0.07,0.33h0c0.04,0.13,0.09,0.21,0.16,0.25c0.01,0.03,0.04,0.04,0.09,0.04l-0.01,0.01
		c0,0.01,0.01,0.01,0.02,0.01l0.01,0c0.06,0,0.09,0.01,0.09,0.02h0.01l0.01,0h0.01v0.02l0.07,0.01l0.03-0.01l0.03,0.01l0.1-0.01
		c0-0.01,0.01-0.02,0.02-0.02l0.02,0l0.08-0.01l0.01,0.01h0.02c0.01,0,0.01-0.01,0.01-0.03h0.01c0,0.01,0,0.02,0.01,0.02v-0.02h0.05
		l0,0v0c0.01,0,0.01-0.01,0.01-0.03v-0.01l0.02,0.01c0.02,0,0.03-0.01,0.03-0.03l0.01-0.01l0.01-0.03c0.04-0.09,0.07-0.14,0.09-0.15
		v-0.03l-0.01-0.01h0.01c0-0.03,0.01-0.06,0.02-0.07v-0.01l0-0.01h0c0-0.03,0.01-0.05,0.01-0.05c0-0.04,0.01-0.07,0.02-0.08v-0.01
		l-0.01-0.01l0.08-0.23v-0.01l0-0.01l0.02-0.02v-0.01l0,0h0c0.06-0.13,0.09-0.22,0.1-0.27v0l-0.01-0.01l0.01-0.02v-0.01l-0.01-0.01
		l0.08-0.21l0.05-0.11c0-0.02,0.01-0.05,0.03-0.08v-0.01l-0.01-0.01h0.01l0-0.01l0.03-0.07c0.03-0.09,0.06-0.18,0.07-0.26
		l-0.01-0.01l0.07-0.19l-0.01-0.01v-0.01c0-0.01,0.01-0.01,0.02-0.01v-0.01l-0.02-0.04l0.02-0.02c0-0.02,0-0.03,0.01-0.03
		c0.03-0.09,0.05-0.13,0.05-0.13l-0.01-0.02v0h0.01c0.01-0.02,0.01-0.03,0.02-0.03l-0.01-0.04l0.02-0.01l0.02,0.01v0.04l0.01,0.01
		l-0.01,0.01v0.01l0.01,0.03l-0.01,0.03v0.02l0.01,0.01l-0.01,0v0.09l-0.01,0.01l0.01,0.03l-0.01,0.01l0.01,0.05v0.05l-0.01,0.08
		h0.01l0.01,0l-0.01,0.03l0.01,0.04l-0.01,0.07l0.01,0.02c-0.02,0.01-0.03,0.01-0.03,0.02v0.05l0.02,0.11v0.01l-0.01,0l0.01,0.1
		v0.01l-0.01,0.05l0.01,0.01l-0.01,0.01v0.17l-0.01,0.03l0.01,0.01l-0.02,0.25c-0.02,0-0.03,0.08-0.03,0.23v0.01l0.01,0.01
		l-0.01,0.01v0.03l0.01,0.01l-0.01,0.04l0,0.03v0.11l0.01,0.07l-0.01,0.01l0.02,0.11h0l0.01,0.13v0.01l-0.01,0.01h0.01l-0.02,0.1
		l0.01,0.01l-0.01,0.01l0.01,0.02c0.02,0,0.04,0.01,0.05,0.04v0.01l-0.01,0.01l0.05,0.02l0.02-0.01c0.1,0,0.15,0.01,0.15,0.04
		l0.37,0.02l0.01-0.01v0.01l0.06-0.01l0.09,0.01h0.07c0.01-0.03,0.02-0.04,0.03-0.04h0.01l-0.03,0.11l0.02,0.02l0.02-0.09v-0.01
		h0.03l-0.01,0.04h0.01c0.01,0,0.01-0.01,0.01-0.03c0.02-0.01,0.03-0.02,0.03-0.04h0.02c0.01,0.03,0.02,0.05,0.03,0.05
		c0,0.02,0.01,0.03,0.03,0.03c0.01,0,0.02-0.02,0.03-0.07v-0.16l0.01-0.03l-0.01-0.01l0.01,0c0.03-0.23,0.05-0.37,0.05-0.43v-0.09
		c-0.01-0.12-0.02-0.24-0.02-0.37l0.01-0.05v-0.01l-0.01,0h0.01l0.07-0.42l-0.01-0.01l0.04-0.23l-0.01-0.05l0.01-0.04v-0.06
		l0.01-0.03l-0.01-0.01v0l0.01-0.01l0.01-0.22v-0.01l-0.01,0l0.01-0.01v-0.02l-0.01-0.07l0.01-0.09v-0.01l0,0l0-0.03v-0.08
		l0.01-0.04v-0.01l-0.01-0.01l0.01-0.17v-0.1c0-0.04-0.01-0.08-0.03-0.12h0.01v0.01h0.01l-0.01-0.08h-0.01l-0.01,0.01h-0.01v-0.03
		h-0.01v0.08l-0.01,0.03l0.01,0.01l-0.01,0.03l0.01,0.08l-0.01,0.03v0.04l0.01,0.01h-0.01l-0.03,0.55l0.01,0.01l-0.01,0.01v0.03
		l0.01,0.03l-0.01,0.01l0.01,0.02l-0.01,0.01v0.11l-0.01,0.05l0.01,0.01v0l-0.01,0.01l0.01,0.02l-0.01,0.02v0.06
		c0,0.06-0.01,0.14-0.03,0.26l0.01,0.01l-0.02,0.16h-0.01l-0.01-0.02l0.01-0.04v-0.01l-0.01,0h0.01l-0.01-0.05v-0.01l0.01-0.03
		l-0.01-0.01l0.01-0.03v-0.03l-0.01-0.16l0.01-0.02l-0.01-0.01l0.01-0.03v-0.01l-0.01,0l0.01-0.01v-0.03l0.01-0.06v0l-0.01-0.01
		l0.01-0.04v-0.01l-0.01-0.01l0.01-0.01v-0.01l-0.01-0.03l0.01-0.01l-0.01-0.03l0.01-0.02v-0.01l-0.01,0l0.01-0.07l-0.01-0.02
		l0.01-0.04l-0.01-0.05l0.01-0.05v-0.1l-0.01-0.01h0.01l-0.01-0.03v0l0.01-0.01l-0.01-0.26l0.01-0.05l-0.01-0.03l0.01-0.01v-0.01
		h-0.01v0.02h-0.01l-0.01-0.04h0.01l-0.01-0.05v-0.08l0.01-0.03l-0.01-0.01l0.01-0.03c0-0.06-0.02-0.1-0.03-0.13l-0.02,0l-0.05-0.01
		v0l0.01-0.01v-0.01h-0.02c0,0.01-0.01,0.02-0.05,0.02v-0.01h0.01v-0.01l-0.01,0c-0.02,0-0.03,0-0.03-0.01l-0.02,0l-0.02-0.01v-0.01
		l0.01-0.01c-0.02,0-0.03,0-0.03-0.01l-0.03,0.01h-0.03v-0.05l-0.01-0.01H66.9l-0.01,0.01l-0.01-0.01h-0.01
		c-0.03,0.02-0.04,0.04-0.04,0.05H66.8l-0.03-0.01L66.74,109h-0.08l-0.05,0.01L66.62,109l-0.03,0.01H66.5v0.02h-0.01l-0.01-0.01
		c0-0.01-0.01-0.02-0.02-0.02h0l-0.01,0.01L66.41,109h-0.03l-0.03,0.01L66.33,109c-0.01,0-0.01,0.01-0.01,0.02h-0.01l-0.03-0.01
		l-0.03,0.01H66.2l-0.13,0.01l-0.03-0.01l-0.01,0.01l0.01,0.02v0.01h-0.01c-0.01,0-0.01-0.01-0.01-0.03h-0.01l0,0.01l0,0.01
		L66,109.05h-0.08l-0.02,0.01v0.01l0.01,0h-0.23l-0.04,0.04c0,0.03-0.01,0.05-0.02,0.05l-0.1,0.22l0.01,0.02l-0.01,0.01
		c-0.01,0.05-0.02,0.07-0.03,0.08v0.01l0.01,0.01l-0.02,0.01c0,0.04-0.01,0.07-0.02,0.07c-0.01,0.06-0.02,0.1-0.04,0.11v0.01
		l0.01,0.01l-0.02,0.01l0,0.02c-0.01,0.03-0.02,0.05-0.03,0.05l0.01,0.01l-0.01,0.01l-0.04,0.11v0.01l0.01,0.01l-0.02,0.01
		c-0.03,0.13-0.05,0.21-0.07,0.21v0.01l0.01,0.01c-0.01,0-0.02,0-0.02,0.01v0.01l0.01,0.01h-0.01c0,0.03-0.01,0.04-0.01,0.04
		c0,0.02,0,0.03-0.01,0.03c-0.01,0.05-0.02,0.08-0.03,0.08l0.01,0.02c-0.09,0.24-0.14,0.38-0.17,0.41
		c-0.03,0.08-0.05,0.12-0.06,0.12l0.01,0.03h-0.01l-0.1-0.33c-0.01-0.08-0.02-0.11-0.03-0.11l0.01-0.02l-0.03-0.06
		c-0.04-0.17-0.07-0.27-0.09-0.29c-0.03-0.12-0.04-0.19-0.05-0.19v-0.01l0.01-0.01v-0.01l-0.01-0.01l-0.02-0.03
		c-0.03-0.14-0.05-0.23-0.05-0.27c-0.02-0.02-0.03-0.03-0.03-0.05l-0.06-0.23c-0.04-0.08-0.05-0.12-0.05-0.14v-0.07l-0.02-0.02H64.4
		c0-0.04-0.01-0.07-0.04-0.1l-0.01,0.01l-0.03-0.05c-0.01-0.08-0.04-0.11-0.1-0.11c-0.04-0.02-0.11-0.03-0.19-0.03h-0.02l-0.03-0.01
		l-0.02,0.01h-0.01l-0.15-0.02v0.01l-0.01,0.01h-0.01l-0.01-0.01h-0.13l0,0.01c0,0.01-0.01,0.02-0.02,0.02h-0.02l-0.11-0.03h-0.01
		l-0.01,0.01v0.01l0.01,0.01h-0.01l-0.02-0.01l-0.16-0.03H63.27z M60.23,112.34h0.01v-0.01L60.23,112.34L60.23,112.34z
		 M60.17,112.31h0.02v0.01L60.17,112.31L60.17,112.31z M60.6,112.3h0.01v0.01L60.6,112.3L60.6,112.3z M60.54,112.3h0.02v0.01
		L60.54,112.3L60.54,112.3z M61.32,112.01c0-0.01,0.02-0.02,0.06-0.02v0.01l0.01,0.01v0.02l-0.01,0l-0.02-0.01l-0.01,0.01
		L61.32,112.01z M61.13,111.95h0.02v0.02h-0.01L61.13,111.95z M61.08,111.95l0.04-0.01v0.01c0,0.01-0.02,0.03-0.07,0.04v0.02
		l0.01,0.01h-0.03v-0.01l0.01-0.01v-0.01h-0.02l0,0.01v0.01l0,0.01H61c-0.02,0-0.04-0.01-0.06-0.02l0.01-0.01h0.04
		c0.05,0,0.07-0.01,0.07-0.02H61.08z M60.55,111.92h0.01l0.01,0.01v0.01l-0.03,0.01V111.92z M60.33,111.84h0.02v0.01h-0.01
		L60.33,111.84z M60.27,111.82h0.02l-0.01,0.01l0.01,0.02h-0.05v-0.01C60.27,111.84,60.27,111.83,60.27,111.82 M62.21,111.76h0.02
		v0.02h0.01v-0.02h0.01l0.01,0.02v0.01l-0.01,0.04h-0.01c0-0.02-0.01-0.03-0.02-0.03l0.01-0.01L62.21,111.76L62.21,111.76z
		 M60.51,111.73h0.02v0.01L60.51,111.73L60.51,111.73z M60.65,111.72h0.02v0.01L60.65,111.72L60.65,111.72z M61.19,111.7h0.02v0.01
		L61.19,111.7L61.19,111.7z M61.13,111.7h0.02v-0.02h-0.02V111.7z M61.28,111.66l-0.01,0.01h0.02l0.01-0.01H61.28z M59.58,111.67
		L59.58,111.67c0.05,0.01,0.07,0.02,0.07,0.03v0.01h-0.06l0.01-0.02L59.58,111.67z M61.7,111.28h0.01c0.01,0,0.02,0.01,0.03,0.04
		l-0.01,0.03h-0.01v-0.01L61.7,111.28z M62.1,111.25l0.01,0.01v0.03h-0.02L62.1,111.25L62.1,111.25z M61.84,111.21L61.84,111.21
		h0.04l-0.01,0.02l0.01,0.02v0.01l-0.01,0.01v0.01l0.01,0.01l-0.01,0.01C61.87,111.28,61.86,111.26,61.84,111.21 M59.66,110.69
		c0.06,0.01,0.09,0.03,0.09,0.04c0.06,0,0.1,0.01,0.13,0.04c0.06,0,0.09,0.01,0.09,0.03c0.04,0.01,0.06,0.01,0.06,0.02l0.02,0
		c0.02,0,0.03,0.01,0.05,0.03h0.01v-0.02h0.01c0.01,0.02,0.05,0.03,0.11,0.03c0.11,0,0.16,0.01,0.16,0.03h0.01v-0.02h0.06v0.02
		l0.29,0.03l0.01,0v0c0.02,0,0.03,0.01,0.03,0.02c0.17,0,0.28,0.01,0.34,0.03l0.01-0.01h0.05l0.01,0.02l0.02-0.01
		c0.02,0.02,0.05,0.04,0.09,0.04v0.02h-0.01c0-0.01-0.07-0.03-0.2-0.04l-0.01,0l-0.01,0h-0.03l-0.01,0l-0.01,0h-0.01L61,111v0
		l-0.02,0l-0.04,0h-0.01l-0.01,0l-0.2-0.02l-0.01,0.01c-0.06-0.02-0.12-0.03-0.19-0.04c-0.1-0.03-0.24-0.05-0.4-0.05
		c0-0.02-0.02-0.03-0.05-0.03l-0.01,0.01c0-0.01-0.02-0.01-0.07-0.02c-0.03-0.02-0.06-0.04-0.08-0.04
		c-0.07-0.03-0.13-0.04-0.17-0.04v-0.02C59.72,110.74,59.69,110.72,59.66,110.69 M59.42,110.54L59.42,110.54l0.04,0.01l-0.01,0
		c0,0.01,0.02,0.02,0.06,0.04v0.02c0.04,0.01,0.08,0.03,0.09,0.06c0.03,0,0.04,0.01,0.04,0.02v0.01h-0.01l-0.08-0.04v0.01l-0.01,0
		h-0.01l-0.01,0v-0.01l0.01-0.01l-0.02-0.02h-0.01l-0.01,0.01v0.01l0.01,0.01H59.5l0.01-0.01l-0.04-0.05h-0.01v0.01l0.01,0.01v0.01
		c-0.01-0.02-0.03-0.03-0.04-0.03l0.01-0.02L59.42,110.54z M59.4,110.51L59.4,110.51l0.01,0.01H59.4V110.51z M59.44,110.2h0.01
		c0,0.01,0.01,0.02,0.04,0.04c-0.03-0.01-0.05-0.02-0.05-0.03V110.2z M59.4,110.18L59.4,110.18l0.02,0.02h0L59.4,110.18z
		 M59.5,110.16h0.02l0.01,0.01v0.01l-0.01,0.01v0.01l0.01,0.01H59.5L59.5,110.16z M60.93,110.15h0.02v0.01L60.93,110.15
		L60.93,110.15z M60.86,110.15h0.04v0.01L60.86,110.15L60.86,110.15z M60.79,110.15h0.02v0.01L60.79,110.15L60.79,110.15z
		 M60.83,110.14l0.02,0.01h-0.02L60.83,110.14L60.83,110.14z M61.07,109.49h0.02l0.02,0.01v0.01h-0.03L61.07,109.49z M60.84,109.46
		h0.01v0L60.84,109.46L60.84,109.46z M60.17,109.47c0-0.01,0.02-0.01,0.07-0.02v0.01h0.01v0L60.17,109.47L60.17,109.47z
		 M59.79,109.43h0.01l0.01,0.02l-0.01,0.01l-0.01-0.02V109.43z M60.48,109.4c0.02,0,0.03,0.01,0.04,0.03l-0.04,0h-0.01L60.48,109.4z
		 M61.36,108.97l0.05,0.01l0.02-0.01h0.01l0.01,0.02l-0.01,0.02v0l0.01,0.01h-0.01l-0.02-0.02c-0.03,0-0.04,0-0.04-0.01V108.97z
		 M60.7,108.82h0.01v0.01L60.7,108.82L60.7,108.82z M60.7,108.8c-0.01,0-0.01,0.01-0.01,0.02h-0.02l-0.01-0.01l-0.01,0.01h-0.21
		l-0.05-0.01l-0.03,0.01h-0.06l-0.01,0.01v0.01l0.01,0.01h-0.01l-0.01,0.01h-0.01l-0.01-0.01v-0.01l0.01-0.01l-0.02-0.01H60.2
		l-0.04,0.01l-0.01-0.01h-0.01l-0.01,0.01v0.01l0.01,0.01h-0.01l-0.01-0.01l-0.02,0.01h-0.02c-0.09,0-0.13,0.01-0.13,0.03
		l-0.16,0.01l-0.01-0.01h-0.01l-0.01,0.01v0.01l0.01,0.01v0.01l-0.01-0.01l-0.12,0.01c-0.01,0.02-0.05,0.04-0.12,0.04v0.01
		l0.01,0.01l-0.03,0.01c-0.02,0-0.02,0.01-0.02,0.03h-0.01l-0.01-0.02h-0.01L59.45,109l0.01,0.01c-0.08,0.06-0.12,0.09-0.14,0.09
		c0,0.02-0.01,0.03-0.02,0.03c-0.06,0.06-0.11,0.14-0.16,0.22c-0.06,0.17-0.1,0.34-0.1,0.53v0.01l0.01,0.01h-0.01l0.01,0.11
		l-0.01,0.03v0.01l0.01,0v0.01l-0.01,0.01l0.01,0.02l-0.01,0.08l0.06,0.07l-0.01,0.05c0.05,0.04,0.1,0.1,0.15,0.16
		c0.02,0.03,0.03,0.05,0.04,0.05c0,0.02,0.01,0.04,0.03,0.04l0.12,0.09l-0.01,0.01v0.01l0.01,0.01c0.02,0,0.04,0.01,0.06,0.04
		c0.01,0,0.08,0.03,0.19,0.1c0,0.01,0.02,0.02,0.05,0.03c0.03,0.02,0.07,0.04,0.14,0.04c0.05,0.03,0.08,0.04,0.1,0.04
		c0.05,0.03,0.14,0.05,0.3,0.05h0.01c0,0.02,0.06,0.04,0.17,0.04l0.09,0.04h0.01l0.01-0.01c0.05,0.01,0.12,0.02,0.21,0.02h0.02
		c0.01,0.02,0.01,0.03,0.02,0.03h0.15l0.02-0.01c0.01,0.01,0.04,0.02,0.08,0.02h0.01l0.01-0.01l0.02,0.01c0.11,0,0.17,0.02,0.2,0.05
		c0.03,0,0.04,0.01,0.04,0.03c0.04,0.01,0.06,0.02,0.06,0.04c0.06,0.01,0.1,0.03,0.1,0.05c0.02,0,0.03,0.01,0.03,0.03
		c0.04,0.01,0.06,0.02,0.06,0.03c0.03,0.03,0.04,0.07,0.04,0.12l-0.02,0.02c-0.02,0.03-0.04,0.06-0.04,0.09
		c-0.02,0.01-0.04,0.02-0.04,0.04c-0.03,0.01-0.05,0.02-0.05,0.04c-0.07,0-0.1,0.01-0.1,0.04c-0.02,0-0.03,0-0.03,0.02
		c0,0.02-0.02,0.04-0.06,0.04v-0.01l-0.04,0.01l-0.03-0.01l-0.04,0.01v-0.02h0.01l0.01,0.01h0.01v-0.01H61.2
		c-0.01,0-0.01,0.01-0.01,0.04H61.1v-0.01l0.01-0.01v-0.01H61.1c0,0.01,0,0.02-0.01,0.02h-0.01c0-0.02-0.01-0.03-0.04-0.03
		l-0.02,0.03l-0.05-0.03v0.02h-0.04l-0.01,0.01v-0.01c-0.03,0-0.04-0.01-0.04-0.02l-0.04,0.03l-0.01-0.01h-0.08v0.02l0.01,0.01
		l-0.02,0.01l-0.02-0.01c0-0.01-0.01-0.02-0.01-0.02h-0.05c-0.15,0-0.23-0.01-0.23-0.04c-0.07-0.01-0.1-0.02-0.1-0.04
		c-0.05-0.02-0.08-0.03-0.08-0.04l-0.15-0.06c-0.02-0.03-0.05-0.04-0.09-0.04c0-0.02-0.01-0.03-0.04-0.04
		c-0.02-0.02-0.04-0.04-0.07-0.04v-0.01l0.01-0.01l-0.01-0.02h-0.01l-0.01,0.01v-0.01c-0.03,0-0.04-0.01-0.04-0.04
		c-0.01,0-0.05-0.02-0.1-0.05v-0.02l-0.1-0.07c0-0.01,0-0.02-0.02-0.02l-0.07-0.05v0l0.01-0.01l-0.05-0.03
		c0-0.01-0.01-0.02-0.02-0.02h-0.01v0.02c-0.05,0-0.08,0.01-0.09,0.02v0.01l0.01,0.01c-0.04,0-0.06,0.01-0.06,0.03
		c-0.04,0.01-0.06,0.01-0.06,0.02c-0.02,0.04-0.04,0.07-0.06,0.07c0,0.02-0.01,0.04-0.02,0.04l-0.04,0.04l0.01,0.01
		c-0.04,0.03-0.06,0.07-0.06,0.1c-0.03,0-0.05,0.04-0.07,0.12l0.01,0.04l-0.01,0.03l0.01,0.01l-0.01,0.01v0l0.05,0.08
		c0.03,0.01,0.04,0.03,0.04,0.05c0.03,0,0.04,0.01,0.04,0.03c0.04,0.01,0.06,0.03,0.06,0.05c0.02,0,0.04,0.01,0.04,0.02
		c0.05,0.04,0.09,0.06,0.11,0.06c0.04,0.03,0.08,0.05,0.12,0.05c0,0.02,0.01,0.03,0.02,0.03l0.02-0.01v0.01c0.03,0,0.04,0,0.04,0.01
		c0,0.01,0.01,0.02,0.03,0.02c0.03,0.02,0.06,0.04,0.07,0.04l0.07,0.05c0.01,0.02,0.05,0.04,0.13,0.05l-0.01,0.01
		c0,0.01,0.02,0.02,0.06,0.02c0.02,0.03,0.06,0.05,0.12,0.05l-0.01,0.01c0,0.01,0.05,0.03,0.15,0.04l-0.01,0.01l0.01,0.01h0.03
		l0.01-0.01c0,0.01,0.05,0.01,0.14,0.02c0,0.02,0.01,0.04,0.02,0.04c0.23,0,0.43,0.01,0.6,0.02c0,0.02,0.01,0.03,0.02,0.03h0.02
		l0.01-0.01l-0.01,0c0-0.02,0.02-0.02,0.06-0.02h0.1l0.01,0v-0.01l-0.01-0.01c0.12-0.01,0.17-0.02,0.17-0.03h0.02l0.01,0.01v-0.02
		h0.01c0.07,0,0.14-0.01,0.21-0.04v0.01l0.05-0.01v0l-0.01-0.01l0.09-0.01c0.03-0.03,0.07-0.04,0.14-0.04h0.01
		c0-0.01,0.02-0.02,0.05-0.02c0.04,0,0.07-0.01,0.07-0.03c0.02,0,0.04,0,0.04-0.01c0.02,0,0.04-0.01,0.04-0.02
		c0.04-0.01,0.06-0.03,0.06-0.04c0.04,0,0.06-0.01,0.06-0.03c0.05-0.01,0.07-0.02,0.07-0.04c0.04-0.01,0.06-0.02,0.06-0.04
		c0.03-0.01,0.05-0.02,0.05-0.04c0.03-0.01,0.04-0.02,0.04-0.04c0.02,0,0.05-0.01,0.08-0.04l0.08-0.17c0.02-0.13,0.04-0.2,0.06-0.2
		c0-0.07-0.01-0.13-0.01-0.15h0.01l-0.01-0.15l0.01-0.01l-0.01-0.03v-0.01l0.01-0.01L62.56,111c-0.04-0.07-0.06-0.12-0.06-0.14
		c-0.05-0.12-0.11-0.23-0.17-0.31c-0.02-0.01-0.03-0.03-0.03-0.04c-0.05-0.01-0.08-0.03-0.08-0.05c-0.02,0-0.03-0.01-0.04-0.04
		c-0.01,0-0.02-0.01-0.02-0.02c-0.06-0.02-0.08-0.04-0.08-0.05l-0.01,0.02l-0.01-0.01c-0.04-0.01-0.07-0.03-0.07-0.04l-0.08-0.03
		c0-0.01-0.01-0.02-0.02-0.02c-0.05-0.04-0.1-0.05-0.17-0.05l-0.01,0.01l-0.01-0.01c-0.03,0-0.05-0.01-0.05-0.02l-0.02,0.01h-0.01
		c0-0.02-0.07-0.03-0.2-0.03h-0.01l-0.01,0.01l-0.08-0.01l-0.01,0.01l-0.02-0.01l-0.04,0.01l-0.01-0.01h-0.01l-0.01,0.01v-0.01
		l-0.03,0.01l-0.07-0.01c-0.01-0.02-0.05-0.04-0.09-0.04v0.01l0.04,0.01v0.01h-0.13v-0.01l0.01-0.01v0l-0.08-0.02l-0.01,0.01
		l-0.04-0.02l-0.09,0.02l-0.03-0.01l-0.01,0.01v-0.01l-0.06-0.01c-0.1,0-0.15-0.01-0.15-0.03l-0.09-0.02h-0.01l-0.01,0.01
		c-0.05,0-0.07-0.01-0.07-0.03h-0.01v0.02H60.3l-0.01-0.02l-0.01,0l-0.12-0.02c-0.04-0.03-0.09-0.04-0.14-0.04
		c-0.07-0.08-0.11-0.16-0.13-0.26h0.01l-0.01-0.02c0-0.04,0.01-0.07,0.03-0.07c0-0.05,0.03-0.07,0.08-0.07l0.02-0.03h0.16l0.01-0.01
		l0.01,0.01h0.02l0.01-0.01v0.01c0.02,0,0.04-0.01,0.04-0.02l0.16-0.01h0.05c0.02-0.02,0.04-0.03,0.06-0.03h0.17l0.05,0.01
		c0.01-0.01,0.02-0.02,0.02-0.04h0.01c0.05,0.03,0.1,0.05,0.14,0.05l0.01-0.01l0.01,0.03c0.07,0.01,0.11,0.02,0.11,0.04h0.02v-0.01
		h0.02c0,0.02,0.01,0.03,0.04,0.04l0.02-0.01c0-0.01-0.01-0.02-0.03-0.03l0.01-0.03h0.01l0.01,0.03c0.08,0,0.12,0.01,0.12,0.03
		c0.07,0.01,0.11,0.02,0.11,0.04l0.09,0.02c0.04,0.03,0.07,0.04,0.11,0.04c0.02,0.02,0.04,0.04,0.08,0.04
		c0.01,0.02,0.03,0.04,0.07,0.04c0.02,0.02,0.04,0.04,0.06,0.04c0.03,0.04,0.06,0.05,0.1,0.05l-0.01,0.01
		c0.01,0.02,0.03,0.03,0.06,0.03h0.17l0-0.01c0-0.02,0.01-0.03,0.01-0.03c0.04-0.06,0.07-0.09,0.08-0.09l-0.01-0.01v-0.01
		c0.02,0,0.04-0.01,0.04-0.04c0.02-0.01,0.04-0.02,0.04-0.04c0.02-0.02,0.03-0.04,0.04-0.05c0.01,0,0.02-0.01,0.02-0.02
		c0.02-0.01,0.03-0.02,0.03-0.04c0.02,0,0.04-0.03,0.05-0.09c-0.01-0.05-0.03-0.09-0.06-0.14c-0.04-0.04-0.07-0.06-0.08-0.06
		c-0.01-0.03-0.04-0.04-0.06-0.04l0.01-0.01c0-0.01-0.02-0.02-0.05-0.02l-0.01-0.01c-0.02,0-0.04-0.01-0.04-0.03
		c-0.05,0-0.08-0.01-0.08-0.03h-0.01l-0.01,0h-0.01c0-0.02-0.02-0.03-0.07-0.03c-0.03-0.02-0.08-0.04-0.15-0.05v-0.01l0.01-0.01
		v-0.01c-0.07,0-0.1-0.01-0.1-0.02l-0.01,0.01l-0.02-0.01h-0.01L61.7,109h-0.02c0-0.01-0.01-0.02-0.04-0.03h-0.01l-0.01,0.01
		c0-0.01-0.03-0.01-0.1-0.02v-0.01c-0.11-0.02-0.18-0.04-0.21-0.06h-0.01l-0.01,0.01c-0.08-0.01-0.12-0.02-0.12-0.03l-0.04,0.01
		c0-0.02-0.04-0.04-0.12-0.04c-0.08,0-0.12-0.01-0.12-0.04H60.9l-0.01,0.01v0.01l0.01,0.01h-0.01l-0.03-0.02h-0.04v0.02H60.8
		c0-0.02-0.02-0.03-0.04-0.03l-0.01,0.01v0.01l0.01,0.01h-0.01c0-0.01-0.01-0.02-0.02-0.02h-0.01H60.7L60.7,108.8z"/>
</g>
</svg>
