<?xml version="1.0" standalone="no"?>
<!DOCTYPE svg PUBLIC "-//W3C//DTD SVG 20010904//EN"
 "http://www.w3.org/TR/2001/REC-SVG-20010904/DTD/svg10.dtd">
<svg version="1.0" xmlns="http://www.w3.org/2000/svg"
 width="236.000000pt" height="48.000000pt" viewBox="0 0 236.000000 48.000000"
 preserveAspectRatio="xMidYMid meet">

<g transform="translate(0.000000,48.000000) scale(0.100000,-0.100000)"
fill="#000000" stroke="none">
<path d="M281 463 c7 -7 41 -28 78 -46 60 -29 75 -32 156 -32 64 0 125 9 210
29 147 35 223 37 288 8 55 -24 62 -17 12 15 -73 48 -128 48 -318 4 -173 -41
-289 -37 -389 12 -27 13 -43 18 -37 10z"/>
<path d="M73 387 c-42 -16 -56 -31 -18 -20 60 16 137 6 235 -30 125 -47 164
-52 215 -29 l40 19 -65 -4 c-57 -4 -80 1 -183 36 -122 42 -169 48 -224 28z"/>
</g>
</svg>
